# xmcd
#
# Track frame offsets:
#	150
#	11142
#	25036
#	37758
#	51978
#	68146
#	83415
#	97924
#	118487
#	130123
#	148603
#	167822
#	183021
#	198781
#	209694
#	219415
#	238264
#	257906
#	267724
#	287690
#	303598
#
# Disc length: 4155 seconds
#
# Revision: 1
# Processed by: cddbd v1.5.2PL0 Copyright (c) Steve Scherf et al.
# Submitted via: audiograbber 1.80
#
DISCID=34103915
DTITLE=Maria Tanase - Muzica de colectie - vol. 14
DYEAR=2007
DGENRE=Folklore
TTITLE0=Am iubit si-am sa iubesc
TTITLE1=Aseara ti-am luat basma
TTITLE2=Aseara vantul batea
TTITLE3=Asta iarna era iarna
TTITLE4=Bun ii vinul ghiurghiuliu
TTITLE5=Cine iubeste si lasa
TTITLE6=Ciuleandra
TTITLE7=Cand toca la Radu Voda
TTITLE8=Colo-n vale-n gradinita
TTITLE9=Frica mi-e ca mor maine
TTITLE10=Hai maica la iarmaroc
TTITLE11=Lung ii drumul Gorjului
TTITLE12=Ma dusei sa trec la Olt
TTITLE13=Marie si Marioara
TTITLE14=Pe vale, tato, pe vale
TTITLE15=Pana cand nu te iubeam
TTITLE16=Agurida
TTITLE17=Pe deal, pe la Cornatel
TTITLE18=Lume lume !
TTITLE19=Mi-am pus busuioc in par
TTITLE20=Valeleu
EXTD=Maria Tanase - Partea I (Muzica de colectie - vol. 14)
EXTT0=
EXTT1=
EXTT2=
EXTT3=
EXTT4=
EXTT5=
EXTT6=
EXTT7=
EXTT8=
EXTT9=
EXTT10=
EXTT11=
EXTT12=
EXTT13=
EXTT14=
EXTT15=
EXTT16=
EXTT17=
EXTT18=
EXTT19=
EXTT20=
PLAYORDER=
